<?xml version="1.0" standalone="no"?>
<svg xmlns:xlink="http://www.w3.org/1999/xlink" id="wave" style="transform:rotate(0deg); transition: 0.3s" viewBox="0 0 1440 490" version="1.1" xmlns="http://www.w3.org/2000/svg"><defs><linearGradient id="sw-gradient-0" x1="0" x2="0" y1="1" y2="0"><stop stop-color="rgba(73.227, 73.227, 73.227, 1)" offset="0%"/><stop stop-color="rgba(0, 0, 0, 1)" offset="100%"/></linearGradient></defs><path style="transform:translate(0, 0px); opacity:1" fill="url(#sw-gradient-0)" d="M0,441L12,383.8C24,327,48,212,72,212.3C96,212,120,327,144,310.3C168,294,192,147,216,122.5C240,98,264,196,288,204.2C312,212,336,131,360,114.3C384,98,408,147,432,163.3C456,180,480,163,504,130.7C528,98,552,49,576,32.7C600,16,624,33,648,89.8C672,147,696,245,720,261.3C744,278,768,212,792,179.7C816,147,840,147,864,163.3C888,180,912,212,936,212.3C960,212,984,180,1008,212.3C1032,245,1056,343,1080,326.7C1104,310,1128,180,1152,171.5C1176,163,1200,278,1224,343C1248,408,1272,425,1296,367.5C1320,310,1344,180,1368,138.8C1392,98,1416,147,1440,138.8C1464,131,1488,65,1512,73.5C1536,82,1560,163,1584,187.8C1608,212,1632,180,1656,179.7C1680,180,1704,212,1716,228.7L1728,245L1728,490L1716,490C1704,490,1680,490,1656,490C1632,490,1608,490,1584,490C1560,490,1536,490,1512,490C1488,490,1464,490,1440,490C1416,490,1392,490,1368,490C1344,490,1320,490,1296,490C1272,490,1248,490,1224,490C1200,490,1176,490,1152,490C1128,490,1104,490,1080,490C1056,490,1032,490,1008,490C984,490,960,490,936,490C912,490,888,490,864,490C840,490,816,490,792,490C768,490,744,490,720,490C696,490,672,490,648,490C624,490,600,490,576,490C552,490,528,490,504,490C480,490,456,490,432,490C408,490,384,490,360,490C336,490,312,490,288,490C264,490,240,490,216,490C192,490,168,490,144,490C120,490,96,490,72,490C48,490,24,490,12,490L0,490Z"/></svg>